Flexion_states
version=1
nRows=5
nColumns=41
inDegrees=yes

# SIMM Motion File Header:
name Flexion_states
datacolumns 41
datarows 5
otherdata 1
range 2.01378950 2.19523363
endheader
time	/jointset/ground_thorax/thorax_tilt/value	/jointset/ground_thorax/thorax_tilt/speed	/jointset/ground_thorax/thorax_list/value	/jointset/ground_thorax/thorax_list/speed	/jointset/ground_thorax/thorax_rotation/value	/jointset/ground_thorax/thorax_rotation/speed	/jointset/ground_thorax/thorax_tx/value	/jointset/ground_thorax/thorax_tx/speed	/jointset/ground_thorax/thorax_ty/value	/jointset/ground_thorax/thorax_ty/speed	/jointset/ground_thorax/thorax_tz/value	/jointset/ground_thorax/thorax_tz/speed	/jointset/sternoclavicular/sternoclavicular_r2/value	/jointset/sternoclavicular/sternoclavicular_r2/speed	/jointset/sternoclavicular/sternoclavicular_r3/value	/jointset/sternoclavicular/sternoclavicular_r3/speed	/jointset/unrotscap/unrotscap_r3/value	/jointset/unrotscap/unrotscap_r3/speed	/jointset/unrotscap/unrotscap_r2/value	/jointset/unrotscap/unrotscap_r2/speed	/jointset/acromioclavicular/acromioclavicular_r2/value	/jointset/acromioclavicular/acromioclavicular_r2/speed	/jointset/acromioclavicular/acromioclavicular_r3/value	/jointset/acromioclavicular/acromioclavicular_r3/speed	/jointset/acromioclavicular/acromioclavicular_r1/value	/jointset/acromioclavicular/acromioclavicular_r1/speed	/jointset/unrothum/unrothum_r1/value	/jointset/unrothum/unrothum_r1/speed	/jointset/unrothum/unrothum_r3/value	/jointset/unrothum/unrothum_r3/speed	/jointset/unrothum/unrothum_r2/value	/jointset/unrothum/unrothum_r2/speed	/jointset/shoulder0/elv_angle/value	/jointset/shoulder0/elv_angle/speed	/jointset/shoulder1/shoulder_elv/value	/jointset/shoulder1/shoulder_elv/speed	/jointset/shoulder1/shoulder1_r2/value	/jointset/shoulder1/shoulder1_r2/speed	/jointset/shoulder2/shoulder_rot/value	/jointset/shoulder2/shoulder_rot/speed
      2.01378950	     -0.00000000	     -0.00000000	     -0.00000000	      0.00000000	     -0.00000000	     -0.00000000	      0.00000000	      0.00000000	     -0.00000000	     -0.00000000	      0.00000000	      0.00000000	    -20.37106197	      9.08891728	      8.62821359	     -3.84963335	     -8.62821359	      3.84963335	     20.37106197	     -9.08891728	     -4.12469392	      1.84030670	     33.33388043	    -14.87251290	     14.98368697	     -6.68524261	    -14.98368697	      6.68524261	    -33.33388043	     14.87251290	      4.12469392	     -1.84030670	     90.00000000	      0.00000000	     84.17873924	    -37.55786511	    -90.00000000	      0.00000000	     -0.00000000	     -0.00000000
      2.05569471	     -0.00000000	      0.00000000	     -0.00000000	     -0.00000000	     -0.00000000	     -0.00000000	      0.00000000	      0.00000000	     -0.00000000	     -0.00000000	      0.00000000	      0.00000000	    -19.90180060	     13.12064889	      8.42945678	     -5.55728323	     -8.42945678	      5.55728323	     19.90180060	    -13.12064889	     -4.02967876	      2.65664405	     32.56601165	    -21.46977619	     14.63852747	     -9.65073378	    -14.63852747	      9.65073378	    -32.56601165	     21.46977619	      4.02967876	     -2.65664405	     90.00000000	      0.00000000	     82.23962429	    -54.21807087	    -90.00000000	     -0.00000000	     -0.00000000	     -0.00000000
      2.09759993	     -0.00000000	      0.00000000	     -0.00000000	     -0.00000000	     -0.00000000	      0.00000000	      0.00000000	      0.00000000	     -0.00000000	     -0.00000000	      0.00000000	      0.00000000	    -19.28819093	     15.96362600	      8.16956089	     -6.76143321	     -8.16956089	      6.76143321	     19.28819093	    -15.96362600	     -3.90543624	      3.23228466	     31.56194071	    -26.12183897	     14.18719434	    -11.74185103	    -14.18719434	     11.74185103	    -31.56194071	     26.12183897	      3.90543624	     -3.23228466	     90.00000000	      0.00000000	     79.70402312	    -65.96602143	    -90.00000000	     -0.00000000	     -0.00000000	     -0.00000000
      2.13950514	     -0.00000000	      0.00000000	     -0.00000000	     -0.00000000	     -0.00000000	      0.00000000	      0.00000000	      0.00000000	     -0.00000000	     -0.00000000	      0.00000000	      0.00000000	    -18.57996900	     17.66321468	      7.86959174	     -7.48129819	     -7.86959174	      7.48129819	     18.57996900	    -17.66321468	     -3.76203681	      3.57641414	     30.40305242	    -28.90293530	     13.66627031	    -12.99196282	    -13.66627031	     12.99196282	    -30.40305242	     28.90293530	      3.76203681	     -3.57641414	     90.00000000	      0.00000000	     76.77745850	    -72.98918165	    -90.00000000	     -0.00000000	     -0.00000000	     -0.00000000
      2.19523363	     -0.00000000	      0.00000000	     -0.00000000	     -0.00000000	     -0.00000000	      0.00000000	      0.00000000	      0.00000000	     -0.00000000	     -0.00000000	      0.00000000	      0.00000000	    -17.56459772	     18.56625962	      7.43952873	     -7.86378510	     -7.43952873	      7.86378510	     17.56459772	    -18.56625962	     -3.55644637	      3.75926096	     28.74156493	    -30.38061929	     12.91942631	    -13.65618654	    -12.91942631	     13.65618654	    -28.74156493	     30.38061929	      3.55644637	     -3.75926096	     90.00000000	      0.00000000	     72.58166970	    -76.72080765	    -90.00000000	     -0.00000000	     -0.00000000	     -0.00000000
